<svg viewBox="0 0 24 24" fill="none" xmlns="http://www.w3.org/2000/svg">
  <path
    d="M0.553852 12.4892H23.4462C23.7185 12.4892 23.9385 12.2692 23.9385 11.9969C23.9385 11.7246 23.7185 11.5046 23.4462 11.5046H1.74308L4.73078 8.51693C4.92308 8.32463 4.92308 8.01232 4.73078 7.82001C4.53847 7.6277 4.22616 7.6277 4.03385 7.82001L0.20462 11.6492C0.0630817 11.7908 0.0215435 12.0016 0.0984669 12.1862C0.17539 12.3692 0.355391 12.4892 0.553852 12.4892Z"
    fill="currentColor" />
  <path
    d="M4.38747 16.3235C4.51363 16.3235 4.63978 16.2758 4.73516 16.1789C4.92747 15.9866 4.92747 15.6743 4.73516 15.482L0.901332 11.6481C0.709025 11.4558 0.396719 11.4558 0.204412 11.6481C0.0121055 11.8404 0.0121055 12.1528 0.204412 12.3451L4.03824 16.1789C4.13517 16.2758 4.26132 16.3235 4.38747 16.3235Z"
    fill="currentColor" />
</svg>