<svg width="128" height="128" fill="none" xmlns="http://www.w3.org/2000/svg"><g clip-path="url(#clip0_2319_5098)" fill="#F4F0E9" stroke-width="2"><path d="M87.2 50.422a84.423 84.423 0 0032.357 32.231L125 85.698l-5.368 2.953a82.466 82.466 0 00-32.208 32.101l-2.982 5.329-3-5.347a84.494 84.494 0 00-32.47-32.343l-5.367-2.99 5.424-3.007A82.597 82.597 0 0081.124 50.42l3.02-5.42 3.057 5.422z" stroke="url(#paint0_linear_2319_5098)"/><path d="M29.158 5.253a50.652 50.652 0 0019.414 19.339l3.265 1.827-3.22 1.771a49.48 49.48 0 00-19.325 19.262l-1.79 3.197-1.8-3.209A50.697 50.697 0 006.221 28.034l-3.22-1.793 3.254-1.805A49.558 49.558 0 0025.512 5.253L27.324 2l1.834 3.253z" stroke="url(#paint1_linear_2319_5098)"/></g><defs><linearGradient id="paint0_linear_2319_5098" x1="115.233" y1="45" x2="35.531" y2="79.62" gradientUnits="userSpaceOnUse"><stop stop-color="#EAA16A" stop-opacity=".984"/><stop offset="1" stop-color="#BF713F"/></linearGradient><linearGradient id="paint1_linear_2319_5098" x1="45.977" y1="2" x2="-1.844" y2="22.772" gradientUnits="userSpaceOnUse"><stop stop-color="#EAA16A" stop-opacity=".984"/><stop offset="1" stop-color="#BF713F"/></linearGradient><clipPath id="clip0_2319_5098"><path fill="#fff" d="M0 0h128v128H0z"/></clipPath></defs></svg>