<?xml version="1.0" encoding="utf-8"?><svg viewBox="0 0 102 102" xmlns="http://www.w3.org/2000/svg" xmlns:xlink="http://www.w3.org/1999/xlink"><style>:root>svg{display:none}:root>svg:target{display:block}</style><svg viewBox="0 0 24 24" fill="none" id="arrow-left" xmlns="http://www.w3.org/2000/svg"><path d="M.554 12.49h22.892a.492.492 0 1 0 0-.985H1.743l2.988-2.988a.493.493 0 0 0-.697-.697l-3.83 3.83a.49.49 0 0 0 .35.84z" fill="currentColor"/><path d="M4.387 16.323a.493.493 0 0 0 .348-.841L.901 11.648a.493.493 0 0 0-.697.697l3.834 3.834a.492.492 0 0 0 .35.145z" fill="currentColor"/></svg><svg fill="none" viewBox="0 0 102 102" id="play" xmlns="http://www.w3.org/2000/svg"><circle cx="51" cy="51" r="50" fill="#F4F0E9" stroke="url(#ba)" stroke-width="1.5" stroke-linejoin="round"/><circle cx="51.002" cy="51" r="44.771" fill="url(#bb)"/><path d="M66.053 49.344a2 2 0 0 1 0 3.312L44.433 67.29c-1.328.9-3.12-.052-3.12-1.656V36.366c0-1.604 1.792-2.555 3.12-1.656l21.62 14.634z" fill="#F4F0E9"/><defs><linearGradient id="ba" x1="13" y1="1" x2="111.039" y2="43.421" gradientUnits="userSpaceOnUse"><stop stop-color="#EAA16A" stop-opacity=".984"/><stop offset="1" stop-color="#BF713F"/></linearGradient><linearGradient id="bb" x1="16.976" y1="6.229" x2="104.762" y2="44.214" gradientUnits="userSpaceOnUse"><stop stop-color="#EAA16A" stop-opacity=".984"/><stop offset="1" stop-color="#BF713F"/></linearGradient></defs></svg></svg>